<svg width="900" height="601" viewBox="0 0 900 601" fill="none" xmlns="http://www.w3.org/2000/svg">
<rect y="0.905914" width="900" height="600" fill="#ECECEC"/>
<path d="M276.901 246.131L219.994 213.937L276.901 181.749L333.807 213.937L276.901 246.131Z" fill="#FAD259" stroke="black" stroke-width="2"/>
<path d="M335.246 340.198L278.34 308.004L335.246 275.816L392.152 308.004L335.246 340.198Z" fill="#FAD259" stroke="black" stroke-width="2"/>
<path d="M220.937 341.388L164.031 309.194L220.937 277.006L277.843 309.194L220.937 341.388Z" fill="#FAD259" stroke="black" stroke-width="2"/>
<path d="M277.5 241.922V307.411" stroke="black" stroke-width="2"/>
<path d="M277.5 309.791V371.708" stroke="black" stroke-width="2"/>
<path d="M333.462 213.343L332.272 278.834" stroke="black" stroke-width="2"/>
<path d="M337.035 338.37V405.05" stroke="black" stroke-width="2"/>
<path d="M391.808 307.411V369.328" stroke="black" stroke-width="2"/>
<path d="M220.046 338.207L220.345 402.668" stroke="black" stroke-width="2"/>
<path d="M279.88 366.947L220.345 400.287" stroke="black" stroke-width="2"/>
<path d="M391.808 366.947L337.035 402.668" stroke="black" stroke-width="2"/>
<path d="M220.345 213.343V282.404" stroke="black" stroke-width="2"/>
<path d="M164.382 308.602V370.519" stroke="black" stroke-width="2"/>
<path d="M194.046 386.136L163.191 368.138" stroke="black" stroke-width="2"/>
<path d="M308.354 387.327L277.499 369.328" stroke="black" stroke-width="2"/>
<path d="M279.88 306.22V245.494L331.081 216.322L329.89 278.239L279.88 306.22Z" fill="white"/>
<path d="M275.713 306.22V246.685L222.727 216.917V277.048L275.713 306.22Z" fill="white"/>
<path d="M216.418 394.439V340.021L166.763 312.174V367.542L216.418 394.439Z" fill="white"/>
<path d="M223.673 394.439V340.021L275.117 311.579V366.947L223.673 394.439Z" fill="white"/>
<path d="M339.765 396.253V338.207L388.741 310.998V365.416L339.765 396.253Z" fill="white"/>
<path d="M334.323 398.066L334.654 341.346L279.881 309.793L279.906 367.23L334.323 398.066Z" fill="white"/>
<path d="M456.068 321.418V251.6H503.114V263.771H470.83V280.407H500.693V292.577H470.83V309.248H503.25V321.418H456.068ZM514.577 321.418V269.055H528.418V278.293H529.031C530.122 275.225 531.94 272.805 534.486 271.032C537.031 269.259 540.077 268.373 543.622 268.373C547.213 268.373 550.27 269.271 552.793 271.066C555.315 272.839 556.997 275.248 557.838 278.293H558.384C559.452 275.293 561.384 272.896 564.179 271.1C566.997 269.282 570.327 268.373 574.168 268.373C579.054 268.373 583.02 269.93 586.065 273.043C589.134 276.134 590.668 280.521 590.668 286.202V321.418H576.179V289.066C576.179 286.157 575.406 283.975 573.861 282.521C572.315 281.066 570.384 280.339 568.065 280.339C565.429 280.339 563.372 281.18 561.895 282.862C560.418 284.521 559.679 286.714 559.679 289.441V321.418H545.599V288.759C545.599 286.191 544.861 284.146 543.384 282.623C541.929 281.1 540.009 280.339 537.622 280.339C536.009 280.339 534.554 280.748 533.259 281.566C531.986 282.362 530.974 283.487 530.224 284.941C529.474 286.373 529.099 288.055 529.099 289.987V321.418H514.577ZM617.071 322.407C613.73 322.407 610.753 321.827 608.139 320.668C605.526 319.487 603.457 317.748 601.935 315.452C600.435 313.134 599.685 310.248 599.685 306.793C599.685 303.884 600.219 301.441 601.287 299.464C602.355 297.487 603.81 295.896 605.651 294.691C607.491 293.487 609.582 292.577 611.923 291.964C614.287 291.35 616.764 290.918 619.355 290.668C622.401 290.35 624.855 290.055 626.719 289.782C628.582 289.487 629.935 289.055 630.776 288.487C631.616 287.918 632.037 287.077 632.037 285.964V285.759C632.037 283.6 631.355 281.93 629.991 280.748C628.651 279.566 626.741 278.975 624.264 278.975C621.651 278.975 619.571 279.555 618.026 280.714C616.48 281.85 615.457 283.282 614.957 285.009L601.526 283.918C602.207 280.737 603.548 277.987 605.548 275.668C607.548 273.327 610.128 271.532 613.287 270.282C616.469 269.009 620.151 268.373 624.332 268.373C627.241 268.373 630.026 268.714 632.685 269.396C635.366 270.077 637.741 271.134 639.81 272.566C641.901 273.998 643.548 275.839 644.753 278.089C645.957 280.316 646.56 282.987 646.56 286.1V321.418H632.787V314.157H632.378C631.537 315.793 630.412 317.237 629.003 318.487C627.594 319.714 625.901 320.68 623.923 321.384C621.946 322.066 619.662 322.407 617.071 322.407ZM621.23 312.384C623.366 312.384 625.253 311.964 626.889 311.123C628.526 310.259 629.81 309.1 630.741 307.646C631.673 306.191 632.139 304.543 632.139 302.702V297.146C631.685 297.441 631.06 297.714 630.264 297.964C629.491 298.191 628.616 298.407 627.639 298.612C626.662 298.793 625.685 298.964 624.707 299.123C623.73 299.259 622.844 299.384 622.048 299.498C620.344 299.748 618.855 300.146 617.582 300.691C616.31 301.237 615.321 301.975 614.616 302.907C613.912 303.816 613.56 304.952 613.56 306.316C613.56 308.293 614.276 309.805 615.707 310.85C617.162 311.873 619.003 312.384 621.23 312.384ZM681.418 342.146C676.713 342.146 672.679 341.498 669.315 340.202C665.974 338.93 663.315 337.191 661.338 334.987C659.361 332.782 658.077 330.305 657.486 327.555L670.918 325.748C671.327 326.793 671.974 327.771 672.861 328.68C673.747 329.589 674.918 330.316 676.372 330.862C677.849 331.43 679.645 331.714 681.759 331.714C684.918 331.714 687.52 330.941 689.565 329.396C691.634 327.873 692.668 325.316 692.668 321.725V312.146H692.054C691.418 313.6 690.463 314.975 689.19 316.271C687.918 317.566 686.281 318.623 684.281 319.441C682.281 320.259 679.895 320.668 677.122 320.668C673.19 320.668 669.611 319.759 666.384 317.941C663.179 316.1 660.622 313.293 658.713 309.521C656.827 305.725 655.884 300.93 655.884 295.134C655.884 289.202 656.849 284.248 658.781 280.271C660.713 276.293 663.281 273.316 666.486 271.339C669.713 269.362 673.247 268.373 677.088 268.373C680.02 268.373 682.474 268.873 684.452 269.873C686.429 270.85 688.02 272.077 689.224 273.555C690.452 275.009 691.395 276.441 692.054 277.85H692.599V269.055H707.02V321.93C707.02 326.384 705.929 330.112 703.747 333.112C701.565 336.112 698.543 338.362 694.679 339.862C690.838 341.384 686.418 342.146 681.418 342.146ZM681.724 309.759C684.065 309.759 686.043 309.18 687.656 308.021C689.293 306.839 690.543 305.157 691.406 302.975C692.293 300.771 692.736 298.134 692.736 295.066C692.736 291.998 692.304 289.339 691.44 287.089C690.577 284.816 689.327 283.055 687.69 281.805C686.054 280.555 684.065 279.93 681.724 279.93C679.338 279.93 677.327 280.577 675.69 281.873C674.054 283.146 672.815 284.918 671.974 287.191C671.134 289.464 670.713 292.089 670.713 295.066C670.713 298.089 671.134 300.702 671.974 302.907C672.838 305.089 674.077 306.782 675.69 307.987C677.327 309.168 679.338 309.759 681.724 309.759ZM718.577 321.418V269.055H732.656V278.191H733.202C734.156 274.941 735.759 272.487 738.009 270.827C740.259 269.146 742.849 268.305 745.781 268.305C746.509 268.305 747.293 268.35 748.134 268.441C748.974 268.532 749.713 268.657 750.349 268.816V281.702C749.668 281.498 748.724 281.316 747.52 281.157C746.315 280.998 745.213 280.918 744.213 280.918C742.077 280.918 740.168 281.384 738.486 282.316C736.827 283.225 735.509 284.498 734.531 286.134C733.577 287.771 733.099 289.657 733.099 291.793V321.418H718.577ZM779.284 322.441C773.898 322.441 769.261 321.35 765.375 319.168C761.511 316.964 758.534 313.85 756.443 309.827C754.352 305.782 753.307 300.998 753.307 295.475C753.307 290.089 754.352 285.362 756.443 281.293C758.534 277.225 761.477 274.055 765.273 271.782C769.091 269.509 773.568 268.373 778.705 268.373C782.159 268.373 785.375 268.93 788.352 270.043C791.352 271.134 793.966 272.782 796.193 274.987C798.443 277.191 800.193 279.964 801.443 283.305C802.693 286.623 803.318 290.509 803.318 294.964V298.952H759.102V289.952H789.648C789.648 287.862 789.193 286.009 788.284 284.396C787.375 282.782 786.114 281.521 784.5 280.612C782.909 279.68 781.057 279.214 778.943 279.214C776.739 279.214 774.784 279.725 773.08 280.748C771.398 281.748 770.08 283.1 769.125 284.805C768.17 286.487 767.682 288.362 767.659 290.43V298.987C767.659 301.577 768.136 303.816 769.091 305.702C770.068 307.589 771.443 309.043 773.216 310.066C774.989 311.089 777.091 311.6 779.523 311.6C781.136 311.6 782.614 311.373 783.955 310.918C785.295 310.464 786.443 309.782 787.398 308.873C788.352 307.964 789.08 306.85 789.58 305.532L803.011 306.418C802.33 309.646 800.932 312.464 798.818 314.873C796.727 317.259 794.023 319.123 790.705 320.464C787.409 321.782 783.602 322.441 779.284 322.441Z" fill="#1B1B1B"/>
</svg>
