<svg width="68" height="64" viewBox="0 0 68 64" fill="none" xmlns="http://www.w3.org/2000/svg">
<path d="M2 50.7684C2.54132 48.964 5.96629 47.9509 7.39682 47.0859C10.6445 45.1222 13.4831 42.558 16.7302 40.6097C18.2928 39.6721 20.304 38.2015 22.0317 37.6256C24.372 36.8455 25.9983 34.6799 27.7143 33.0541C29.5275 31.3364 32.3399 30.9298 34.6032 29.9113C36.5381 29.0405 40.2217 26.7684 42.2857 26.7684C44.6143 26.7684 44.2857 27.4968 44.2857 29.6256C44.2857 31.4571 42.5792 35.2794 40.8571 36.3557C34.45 40.3602 26.2289 41.1204 19.4603 44.197C17.5282 45.0752 14.6933 46.197 12.5714 46.197C10.6673 46.197 9.84475 47.145 8.28571 47.3399C6.95613 47.5061 1.92451 50.7307 3.14286 51.3399" stroke="black" stroke-width="3" stroke-linecap="round"/>
<path d="M44.2857 25.6256C44.2857 23.4319 49.7102 11.8754 52.7302 14.8954C54.2745 16.4397 52.0995 24.0879 51.5873 25.7526C50.8022 28.3044 47.799 30.4298 45.873 32.3558C44.7609 33.4679 40.5018 36.8765 40.8572 37.0542" stroke="black" stroke-width="3" stroke-linecap="round"/>
<path d="M40.8571 37.6256C37.493 37.2518 33.2354 33.8465 30.254 32.3557C28.0048 31.2312 25.9833 29.9356 23.7143 28.9272C22.2463 28.2748 12.8257 25.3413 13.4603 28.197C14.0566 30.8802 15.1429 32.3806 15.1429 35.4034C15.1429 40.6944 15.1429 45.9854 15.1429 51.2764C15.1429 53.6052 15.1333 60.478 17.4286 61.6256" stroke="black" stroke-width="3" stroke-linecap="round"/>
<path d="M35.7143 29.0542C33.0591 26.399 29.4765 24.2554 26.2857 22.4827C25.5557 22.0772 21.7239 19.7567 23.0159 22.197C23.8602 23.7919 25.3611 24.8185 26.2857 26.4827C27.0869 27.9249 28.142 29.3382 28.8571 30.7684" stroke="black" stroke-width="3" stroke-linecap="round"/>
<path d="M39.7143 38.197C35.2732 38.197 32.2858 40.3965 32.2858 44.7684C32.2858 46.8567 30.4425 48.5763 30.5715 50.7684C30.6248 51.6752 32.1223 54.2785 32.8572 54.7684" stroke="black" stroke-width="3" stroke-linecap="round"/>
<path d="M42 35.9113C41.8923 36.7731 39.9683 37.5085 39.9683 38.197C39.9683 38.391 42.4967 39.9967 42.8572 40.197C45.2143 41.5065 48.5487 43.3353 51.1111 43.8478C53.0749 44.2406 55.4931 45.6256 57.4286 45.6256" stroke="black" stroke-width="3" stroke-linecap="round"/>
<path d="M53.4285 14.197C53.4285 10.3827 52.8571 -1.04584 52.8571 2.76844" stroke="black" stroke-width="3" stroke-linecap="round"/>
<path d="M53.4286 13.6256C57.667 13.6256 61.6858 12.4827 66 12.4827" stroke="black" stroke-width="3" stroke-linecap="round"/>
</svg>
